<svg width="35.744" height="86.133" viewBox="0 0 35.744 86.133" xmlns="http://www.w3.org/2000/svg"><g id="svgGroup" stroke-linecap="round" fill-rule="evenodd" font-size="9pt" stroke="#000" stroke-width="0.25mm" fill="#000" style="stroke:#000;stroke-width:0.25mm;fill:#000"><path d="M 0 54.785 L 0 53.223 A 151.131 151.131 0 0 1 2.718 25.327 A 195.896 195.896 0 0 1 7.813 4.688 L 7.813 3.711 L 7.422 3.418 Q 8.408 0.28 12.439 0.023 A 11.693 11.693 0 0 1 13.184 0 Q 24.9 0 32.546 29.358 A 189.43 189.43 0 0 1 34.277 36.621 A 171.802 171.802 0 0 1 35.742 52.246 A 69.859 69.859 0 0 1 34.955 63.147 Q 34.051 68.853 32.108 73.287 A 24.554 24.554 0 0 1 23.145 84.277 A 48.41 48.41 0 0 1 20.795 85.089 Q 18.273 85.883 16.483 86.073 A 10.018 10.018 0 0 1 15.43 86.133 Q 7.246 86.133 3.396 75.757 A 42.717 42.717 0 0 1 1.66 69.531 A 48.078 48.078 0 0 1 0.469 63.13 Q 0 59.247 0 54.785 Z M 5.859 53.223 L 5.859 54.102 Q 5.859 75.684 12.988 79.59 L 15.43 80.273 L 16.406 80.273 A 8.975 8.975 0 0 0 23.466 76.769 Q 26.15 73.597 27.906 67.553 A 53.092 53.092 0 0 0 28.613 64.844 Q 29.59 60.938 29.59 55.762 L 29.59 50.098 A 77.271 77.271 0 0 0 24.662 22.26 A 71.999 71.999 0 0 0 17.285 8.008 A 17.578 17.578 0 0 0 16.306 7.133 Q 14.704 5.813 13.654 5.764 A 1.718 1.718 0 0 0 13.574 5.762 Q 5.859 28.223 5.859 53.223 Z" vector-effect="non-scaling-stroke"/></g></svg>