<svg width="78.629" height="97.679" viewBox="0 0 78.629 97.679" xmlns="http://www.w3.org/2000/svg"><g id="svgGroup" stroke-linecap="round" fill-rule="evenodd" font-size="9pt" stroke="#000" stroke-width="0.25mm" fill="#000" style="stroke:#000;stroke-width:0.25mm;fill:#000"><path d="M 17.885 58.421 L 16.908 58.324 Q 14.284 68.297 9.632 81.797 A 646.782 646.782 0 0 1 4.604 95.824 L 2.358 96.41 A 6.53 6.53 0 0 1 1.382 95.905 Q 0 95.021 0 93.741 A 2.493 2.493 0 0 1 0.014 93.48 Q 9.877 63.695 12.612 53.148 L 13.393 49.535 A 236.585 236.585 0 0 1 8.084 36.722 Q 0.838 17.546 1.283 6.175 A 2.785 2.785 0 0 1 2.859 3.955 Q 3.539 3.602 4.506 3.441 Q 7.729 3.929 7.241 13.109 A 128.345 128.345 0 0 0 13.623 35.613 A 146.196 146.196 0 0 0 15.737 40.843 L 16.616 40.941 A 190.021 190.021 0 0 0 19.776 31.894 Q 23.305 20.989 27.065 5.882 A 27.9 27.9 0 0 1 27.929 3.883 Q 29.81 0 31.747 0 A 1.96 1.96 0 0 1 32.045 0.023 A 6.544 6.544 0 0 1 33.119 0.662 Q 34.636 1.793 34.487 3.441 A 13.206 13.206 0 0 0 33.446 5.562 Q 31.267 10.911 27.769 25.976 A 532.191 532.191 0 0 0 27.651 26.488 A 1425.388 1425.388 0 0 0 25.905 31.337 Q 20.456 46.566 19.884 49.468 A 5.097 5.097 0 0 0 19.838 49.73 A 650.31 650.31 0 0 1 26.913 64.966 Q 33.049 78.673 36.83 89.183 A 3.225 3.225 0 0 1 38.214 91.573 Q 38.267 92.05 38.219 92.593 A 6.51 6.51 0 0 1 38.198 92.796 A 7.65 7.65 0 0 1 37.592 94.106 Q 36.351 96.196 34.167 95.931 A 4.41 4.41 0 0 1 34.096 95.921 A 1.945 1.945 0 0 1 32.913 95.167 Q 31.063 93.027 29.213 84.886 A 337.901 337.901 0 0 0 25.56 75.809 Q 22.219 67.821 17.885 58.421 Z M 42.885 66.332 L 42.885 64.769 A 151.131 151.131 0 0 1 45.603 36.873 A 195.896 195.896 0 0 1 50.698 16.234 L 50.698 15.257 L 50.307 14.964 Q 51.293 11.827 55.324 11.569 A 11.693 11.693 0 0 1 56.069 11.546 Q 67.785 11.546 75.431 40.905 A 189.43 189.43 0 0 1 77.162 48.168 A 171.802 171.802 0 0 1 78.627 63.793 A 69.859 69.859 0 0 1 77.84 74.693 Q 76.936 80.399 74.993 84.833 A 24.554 24.554 0 0 1 66.03 95.824 A 48.41 48.41 0 0 1 63.68 96.636 Q 61.158 97.43 59.368 97.619 A 10.018 10.018 0 0 1 58.315 97.679 Q 50.131 97.679 46.281 87.303 A 42.717 42.717 0 0 1 44.545 81.078 A 48.078 48.078 0 0 1 43.354 74.676 Q 42.885 70.793 42.885 66.332 Z M 48.744 64.769 L 48.744 65.648 Q 48.744 87.23 55.873 91.136 L 58.315 91.82 L 59.291 91.82 A 8.975 8.975 0 0 0 66.351 88.316 Q 69.035 85.143 70.791 79.099 A 53.092 53.092 0 0 0 71.498 76.39 Q 72.475 72.484 72.475 67.308 L 72.475 61.644 A 77.271 77.271 0 0 0 67.547 33.806 A 71.999 71.999 0 0 0 60.17 19.554 A 17.578 17.578 0 0 0 59.192 18.679 Q 57.589 17.359 56.539 17.31 A 1.718 1.718 0 0 0 56.459 17.308 Q 48.744 39.769 48.744 64.769 Z" vector-effect="non-scaling-stroke"/></g></svg>